Coordinates
version=1
nRows=21
nColumns=19
inDegrees=yes

Units are S.I. units (second, meters, Newtons, ...)
If the header above contains a line with 'inDegrees', this indicates whether rotational values are in degrees (yes) or radians (no).

endheader
time	pelvis_tilt	pelvis_list	pelvis_rotation	pelvis_tx	pelvis_ty	pelvis_tz	hip_flexion_r	hip_adduction_r	hip_rotation_r	knee_angle_r	knee_angle_r_beta	ankle_angle_r	hip_flexion_l	hip_adduction_l	hip_rotation_l	knee_angle_l	knee_angle_l_beta	ankle_angle_l
     16.60666667	     -9.49841458	      4.61701157	      1.26619801	      2.26675871	      0.94524353	      1.01348992	     -9.45945399	    -12.41385398	    -20.13011804	     70.55936104	      1.23149317	    -14.03071003	     31.10378965	      8.15796288	     -3.13470905	      8.12913888	      0.14188024	      8.15478967
     16.61333333	     -9.67549106	      4.73531848	      1.89142799	      2.26575098	      0.94095083	      1.01259978	     -7.53750544	    -12.81136332	    -19.71427355	     74.48155522	      1.29994837	    -14.22907789	     31.81316067	      8.36677156	     -3.87051020	     11.76683355	      0.20536999	      8.03628190
     16.62000000	     -9.88621357	      4.77826863	      2.54066687	      2.26445351	      0.93624816	      1.01176712	     -5.43600511	    -13.13089163	    -19.26316584	     78.33945683	      1.36728146	    -14.40000735	     32.72663248	      8.43633999	     -4.75349969	     15.99151485	      0.27910459	      8.02359717
     16.62666667	    -10.32844600	      4.65798904	      3.25016319	      2.26287638	      0.93097412	      1.01097828	     -2.91576973	    -13.27363032	    -18.76696454	     82.11758920	      1.43322231	    -14.69547254	     33.95784905	      8.30753005	     -5.58479953	     20.55868062	      0.35881667	      8.08204573
     16.63333333	    -10.57487095	      4.51257145	      3.94315185	      2.26111559	      0.92569577	      1.01037504	     -0.48464789	    -13.37224194	    -18.24781407	     85.73632960	      1.49638124	    -14.75964027	     34.87821446	      8.11897654	     -6.23939099	     25.08327535	      0.43778574	      8.41071809
     16.64000000	    -10.64745032	      4.29263952	      4.59884889	      2.25910167	      0.92068526	      1.00995565	      1.92060371	    -13.33865150	    -17.64641895	     89.14692266	      1.55590732	    -14.79965914	     35.43245602	      7.84374346	     -6.62536709	     29.36832294	      0.51257393	      9.03149547
     16.64666667	    -10.63754152	      4.05905930	      5.26464226	      2.25681026	      0.91595184	      1.00960375	      4.37701760	    -13.27577610	    -17.03162572	     92.35342044	      1.61187126	    -14.68759337	     35.66112840	      7.60656833	     -6.67452904	     33.27336846	      0.58072983	     10.04841225
     16.65333333	    -10.62950364	      3.83544377	      5.95803168	      2.25433526	      0.91159061	      1.00921203	      6.96308708	    -13.23573692	    -16.41244897	     95.31618062	      1.66358118	    -14.57383308	     35.60749413	      7.47701536	     -6.36248613	     36.71379529	      0.64077661	     11.45329486
     16.66000000	    -10.53046836	      3.55871159	      6.62151660	      2.25142403	      0.90780481	      1.00889035	      9.61722746	    -13.11976634	    -15.76044956	     98.02306699	      1.71082526	    -14.33844747	     35.18062340	      7.34395273	     -5.77012000	     39.63991620	      0.69184705	     13.28514888
     16.66666667	    -10.38352706	      3.32286247	      7.24994285	      2.24842513	      0.90472921	      1.00851370	     12.32276533	    -13.04043917	    -15.05471752	    100.40053795	      1.75231996	    -13.96820812	     34.35180656	      7.29849659	     -4.97323721	     41.97051284	      0.73252364	     15.42762975
     16.67333333	     -9.70423687	      3.34782647	      7.86536861	      2.24550307	      0.90311935	      1.00797242	     14.43156075	    -13.25415131	    -14.39423716	    102.35098184	      1.78636163	    -13.66695841	     32.47767480	      7.50471316	     -4.02812642	     43.51516346	      0.75948288	     17.69031459
     16.68000000	     -9.93300289	      2.85431028	      8.31122222	      2.24235808	      0.90106250	      1.00766340	     17.80145520	    -12.81258230	    -13.51376502	    104.04136056	      1.81586430	    -12.87761837	     31.43496059	      7.18588518	     -3.02447254	     44.74420678	      0.78093373	     20.19990299
     16.68666667	     -9.50768712	      2.68192946	      8.77121195	      2.23963585	      0.90079530	      1.00704571	     20.29986533	    -12.74556668	    -12.77329926	    105.19331407	      1.83596968	    -12.31029522	     29.15065704	      7.15614911	     -1.87781508	     45.06858263	      0.78659516	     22.56074282
     16.69333333	     -9.29010192	      2.38028467	      9.09002363	      2.23722721	      0.90116725	      1.00646434	     23.02943298	    -12.47639300	    -11.98615049	    105.92610204	      1.84875924	    -11.44944429	     26.75827201	      6.90669284	     -0.79739672	     44.77227569	      0.78142362	     24.67777510
     16.70000000	     -9.26150676	      2.12842286	      9.08281067	      2.23517871	      0.90211288	      1.00609907	     25.99534765	    -12.11840161	    -10.92639497	    106.30809206	      1.85542623	    -10.21755027	     24.23797414	      6.53185063	     -0.07801065	     43.84882214	      0.76530632	     26.37410264
     16.70666667	     -9.40107956	      1.55238524	      9.29628212	      2.23368602	      0.90388224	      1.00533775	     28.88634274	    -11.51868761	    -10.38310692	    106.09105781	      1.85163827	     -9.37563500	     21.63400650	      5.96034344	      1.10371739	     42.35090438	      0.73916272	     27.53163186
     16.71333333	     -9.50854796	      1.21416294	      9.05672156	      2.23276942	      0.90629388	      1.00487151	     31.69156883	    -10.94342217	     -9.43541151	    105.58944684	      1.84288350	     -7.89930382	     18.63850792	      5.38810346	      1.65943556	     40.17779395	      0.70123479	     28.22775668
     16.72000000	     -9.36360172	      0.96177173	      8.55882601	      2.23263212	      0.90984187	      1.00450715	     34.00559480	    -10.28253702	     -8.45719571	    104.60863937	      1.82576518	     -6.41665590	     15.01054781	      4.81856781	      2.03093173	     37.27589731	      0.65058714	     28.00165270
     16.72666667	     -9.00281703	      0.36649343	      8.29933886	      2.23309480	      0.91427897	      1.00384353	     35.70866807	     -9.38342787	     -8.11826374	    103.08857852	      1.79923512	     -4.94721199	     11.02014874	      3.93420927	      2.73191746	     33.95012757	      0.59254151	     27.03922997
     16.73333333	     -9.34911186	     -0.31778842	      7.79668755	      2.23379828	      0.91819372	      1.00351741	     38.10731098	     -8.29889341	     -7.67518408	    101.34379416	      1.76878288	     -3.39731474	      7.74944691	      2.99731996	      3.05654557	     30.41579798	      0.53085582	     25.19654987
     16.74000000	    -10.35398580	     -1.45945409	      7.59565839	      2.23466231	      0.92165894	      1.00299577	     40.93223412	     -7.03265587	     -7.85617616	     99.19563379	      1.73129041	     -1.89972449	      5.42053096	      1.69292094	      3.60568870	     27.10202829	      0.47301963	     22.60505810
